<svg xmlns="http://www.w3.org/2000/svg" version="1.1" xmlns:xlink="http://www.w3.org/1999/xlink" xmlns:svgjs="http://svgjs.dev/svgjs" width="128" height="128" viewBox="0 0 128 128"><g transform="matrix(0.8046875,0,0,0.8046875,12.244448769122648,12.760752631578946)"><svg viewBox="0 0 95 95" data-background-color="#ffffff" preserveAspectRatio="xMidYMid meet" height="128" width="128" xmlns="http://www.w3.org/2000/svg" xmlns:xlink="http://www.w3.org/1999/xlink"><g id="tight-bounds" transform="matrix(1,0,0,1,0.23570259158590545,-0.24049999999999727)"><svg viewBox="0 0 94.52859481682819 95.48099999999998" height="95.48099999999998" width="94.52859481682819"><g><svg viewBox="0 0 94.52859481682819 95.48099999999998" height="95.48099999999998" width="94.52859481682819"><g><svg viewBox="0 0 94.52859481682819 95.48099999999998" height="95.48099999999998" width="94.52859481682819"><g id="textblocktransform"><svg viewBox="0 0 94.52859481682819 95.48099999999998" height="95.48099999999998" width="94.52859481682819" id="textblock"><g><svg viewBox="0 0 94.52859481682819 95.48099999999998" height="95.48099999999998" width="94.52859481682819"><g><svg viewBox="0 0 94.52859481682819 95.48099999999998" height="95.48099999999998" width="94.52859481682819"><g><svg xmlns="http://www.w3.org/2000/svg" xmlns:xlink="http://www.w3.org/1999/xlink" version="1.1" x="0" y="0" viewBox="6.1 5.000641038811878 89.2 90.09871792237624" style="enable-background:new 0 0 100 100;" xml:space="preserve" height="95.48099999999998" width="94.52859481682819" class="icon-icon-0" data-fill-palette-color="accent" id="icon-0"><path d="M95.3 68.9v15.7c0 0-9.5-3.9-11.3-3.9s-4 1.6-4 1.6-19.5 12-22.3 12.5-5.6 0.4-10.1-0.5c-3.9-0.8-16.5-5.6-21.7-7.6-0.9-0.3-1.1-1.5-0.5-2.2 0.8-0.9 1.8-1.4 1.8-1.4s1.6-0.8 3.1-0.9c1-0.1 2.7 0.1 4.2 0.4-1.3-1.7-2.7-3.7-3.2-4.8 1.5-1.1 2.8-1 3.8-0.5 1 0.5 3.4 2.5 4.3 3.5 0.7 0.7 2.1 3 2.9 4.2 1.1 0.3 2.2 0.6 3 0.8 2.6 0.6 7.1 0.8 9-0.1 1.7-0.9 5.3-4.6 6.1-5.2 0.8-0.6 0.5-1.2-0.1-1.4s-3.1 0.4-4.8 0.5c-1.3 0.1-3.7 0.3-5.5 0-1.2-0.2-3.8-0.8-5-2s-2-4.1-1.2-5.5c1.6 0.2 2.6 0.5 3.6 0.7 1 0.2 3.7 0.3 5.4-0.3 1.7-0.7 10.5-5.1 13.3-5.6 2.8-0.6 11.9-2.8 17.4-1.7C88.9 66.2 95.3 68.9 95.3 68.9zM18.1 34.9c5.5 1.1 14.6-1.1 17.4-1.7 2.8-0.6 11.6-4.9 13.3-5.6 1.7-0.7 4.3-0.5 5.4-0.3 1 0.2 2.1 0.5 3.6 0.7 0.8-1.3 0-4.3-1.2-5.5s-3.9-1.7-5-2c-1.9-0.3-4.2-0.2-5.5 0-1.7 0.2-4.2 0.8-4.8 0.5-0.6-0.2-0.8-0.8-0.1-1.4 0.8-0.6 4.4-4.4 6.1-5.2 1.9-1 6.4-0.7 9-0.1 0.9 0.2 1.9 0.5 3 0.8 0.7 1.2 2.2 3.5 2.9 4.2 0.9 1 3.3 3 4.3 3.5 1 0.5 2.2 0.7 3.8-0.5-0.5-1-2-3.1-3.2-4.8 1.5 0.3 3.2 0.5 4.2 0.4 1.5-0.1 3.1-0.9 3.1-0.9s0.9-0.6 1.8-1.4c0.7-0.7 0.4-1.8-0.5-2.2-5.2-2-17.7-6.9-21.7-7.6-4.4-0.9-7.3-1-10.1-0.5S21.5 17.8 21.5 17.8s-2.2 1.6-4 1.6S6.1 15.4 6.1 15.4v15.7C6.1 31.1 12.5 33.8 18.1 34.9zM63 50.1c0-6.7-5.5-12.2-12.2-12.2s-12.2 5.5-12.2 12.2S44 62.3 50.7 62.3 63 56.9 63 50.1zM60.9 50.1c0 5.6-4.6 10.2-10.2 10.2s-10.2-4.6-10.2-10.2S45.1 40 50.7 40 60.9 44.5 60.9 50.1zM50.7 57.2L50.7 57.2c0.5 0 0.9-0.4 0.9-0.9v-0.9c2-0.3 3.1-1.7 3.1-3.2 0-1.6-0.8-2.5-2.9-3.3-1.5-0.6-2.1-0.9-2.1-1.5 0-0.5 0.4-1 1.5-1 0.6 0 1.1 0.1 1.5 0.2 0.5 0.2 1.1-0.2 1.2-0.7l0 0c0.1-0.5-0.2-1.1-0.7-1.2-0.4-0.1-0.9-0.2-1.6-0.2v-0.7c0-0.5-0.4-0.9-0.9-0.9h0c-0.5 0-0.9 0.4-0.9 0.9v0.8C48.1 45 47 46.2 47 47.8c0 1.7 1.3 2.6 3.1 3.2 1.3 0.4 1.8 0.9 1.8 1.5 0 0.7-0.7 1.1-1.7 1.1-0.7 0-1.3-0.1-1.9-0.3-0.6-0.2-1.2 0.1-1.3 0.7l0 0.1c-0.1 0.5 0.2 1 0.7 1.2 0.6 0.2 1.3 0.3 2.1 0.4v0.8C49.8 56.9 50.2 57.2 50.7 57.2z" fill="#ebbc18" data-fill-palette-color="accent"></path></svg></g></svg></g></svg></g></svg></g></svg></g></svg></g><defs></defs></svg><rect width="94.52859481682819" height="95.48099999999998" fill="none" stroke="none" visibility="hidden"></rect></g></svg></g></svg>